# xmcd CD database file
#
# Track frame offsets:
#	150
#	12882
#	27602
#	40175
#	53558
#	67754
#	78530
#	89562
#	102072
#	113187
#	126212
#	136229
#	152516
#	165981
#	177914
#	189029
#	204660
#	220971
#	229674
#	242675
#
# Disc length: 3434 seconds
#
# Revision: 2
# Processed by: cddbd v1.5.1PL0 Copyright (c) Steve Scherf et al.
# Submitted via: CDex 1.51
#
DISCID=fd0d6814
DTITLE=B.B. King - The very best of B.B.King [CD 1)
DYEAR=2004
DGENRE=Blues
TTITLE0=Boogie Woogie Women
TTITLE1=Past Day
TTITLE2=I Gotta Find My Baby
TTITLE3=When My heart Beats Like A Hammer
TTITLE4=Whole lotta Lve
TTITLE5=Every  Day I Have The Blues
TTITLE6=Let´s Do The Boogie
TTITLE7=Why I Sing The Blues
TTITLE8=Everything I Do Is Wrong
TTITLE9=The Woman I Love
TTITLE10=Jump With You Baby
TTITLE11=Troubles, Troubles, Troubles
TTITLE12=Cryin Won´t Help You
TTITLE13=payin The Cost To Be Your Boss
TTITLE14=Catfish Blues
TTITLE15=Walkin´  And  Cryin´
TTITLE16=The Other Night Blues
TTITLE17=A New Way Of Driving
TTITLE18=Please Love me
TTITLE19=B.B.Boogie
EXTD=YEAR: 2004
EXTT0=
EXTT1=
EXTT2=
EXTT3=
EXTT4=
EXTT5=
EXTT6=
EXTT7=
EXTT8=
EXTT9=
EXTT10=
EXTT11=
EXTT12=
EXTT13=
EXTT14=
EXTT15=
EXTT16=
EXTT17=
EXTT18=
EXTT19=
PLAYORDER=
